# xmcd CD database file
#
# Track frame offsets:
#	150
#	32462
#	45360
#	77577
#	92116
#	103911
#	122474
#	140278
#	157261
#	174542
#	190784
#	209112
#	227838
#	255470
#
# Disc length: 3560 seconds
#
# Revision: 20
# Processed by: cddbd v1.5.2PL0 Copyright (c) Steve Scherf et al.
# Submitted via: CDex 1.85
#
DISCID=b70de60e
DTITLE=Marius Mueller-Westernhagen - Nahaufnahme
DYEAR=2005
DGENRE=Deutsch Rock
TTITLE0=Versuch dich zu erinnern
TTITLE1=Alles ist moeglich
TTITLE2=Du entkommst mir nicht
TTITLE3=Schweige still
TTITLE4=Georgie
TTITLE5=Eins (Long Version)
TTITLE6=Willst du tanzen
TTITLE7=Gejammer
TTITLE8=Mit dem Ruecken zur Wand
TTITLE9=Daneben
TTITLE10=Ich wollte nie
TTITLE11=Ignoranz
TTITLE12=Liebst du mich
TTITLE13=So lange wir noch leben
EXTD=YEAR: 2005
EXTT0=
EXTT1=
EXTT2=
EXTT3=
EXTT4=
EXTT5=
EXTT6=
EXTT7=
EXTT8=
EXTT9=
EXTT10=
EXTT11=
EXTT12=
EXTT13=
PLAYORDER=
